# .PCD v0.7 - Point Cloud Data file format
VERSION 0.7
FIELDS x y z range azimuth elevation RCS SNR ambgt exist_prob multi_tgt_prob ambgt_prob raw_doppler idx
SIZE 4 4 4 4 4 4 4 4 4 1 1 1 4 1
TYPE F F F F F F F F F U U U F U
COUNT 1 1 1 1 1 1 1 1 1 1 1 1 1 1
WIDTH 10
HEIGHT 1
VIEWPOINT 0 0 0 1 0 0 0
POINTS 10
DATA ascii
10.523464 0.423884 0.000000 10.532 0.040260 0.000000 -20.5 14.75 21.82 85 100 77 -0.04 128
15.382010 -1.257332 0.120000 15.433 -0.081631 0.007776 -18.3 18.20 21.82 92 100 82 2.15 130
22.105480 2.841335 -0.050000 22.288 0.127940 -0.002243 -25.0 11.50 21.82 78 100 71 -1.82 125
8.762130 0.000000 0.300000 8.767 0.000000 0.034210 -22.1 16.80 21.82 90 100 80 0.50 128
30.000000 -5.000000 1.500000 30.454 -0.165149 0.049290 -30.0 9.20 21.82 65 100 60 3.50 135
45.200000 3.500000 -0.200000 45.335 0.077308 -0.004412 -28.5 7.80 21.82 55 100 50 -4.20 120
5.500000 0.850000 0.000000 5.565 0.153402 0.000000 -15.0 22.40 21.82 95 100 88 0.30 128
12.800000 -2.100000 0.080000 12.971 -0.162657 0.006168 -19.5 17.30 21.82 88 100 75 -1.50 126
25.600000 1.200000 -0.350000 25.628 0.046850 -0.013661 -24.0 12.10 21.82 72 100 68 2.80 132
38.900000 -4.200000 0.900000 39.129 -0.107516 0.023009 -27.0 10.50 21.82 60 100 55 -3.80 127
